<svg xmlns="http://www.w3.org/2000/svg" width="35.553" height="41.457" viewBox="0 0 35.553 41.457">
  <g id="Icon_ionic-md-pizza" data-name="Icon ionic-md-pizza" transform="translate(-4.5 -2.25)">
    <path id="Path_5" data-name="Path 5" d="M35.616,9.8A36.978,36.978,0,0,0,21.624,7.172,37.868,37.868,0,0,0,7.632,9.763c-.75.305-1.416.833-.935,1.8S21.615,42.151,21.615,42.151l14.9-30.528A1.322,1.322,0,0,0,35.616,9.8ZM15.165,16.611a2.961,2.961,0,1,1,2.961-2.961A2.9,2.9,0,0,1,15.165,16.611Zm6.459,13.233a2.961,2.961,0,1,1,2.961-2.961A2.9,2.9,0,0,1,21.624,29.843Zm6.459-11.382A2.961,2.961,0,1,1,31.044,15.5,2.9,2.9,0,0,1,28.083,18.461Z" transform="translate(0.643 1.556)" fill="#dfdfdf"/>
    <path id="Path_6" data-name="Path 6" d="M39.007,5.4A46.828,46.828,0,0,0,22.267,2.25,45.858,45.858,0,0,0,5.527,5.341,1.4,1.4,0,0,0,4.5,6.618l.9,2.23a1.615,1.615,0,0,0,1.4.759,1.814,1.814,0,0,0,.676-.139,41.386,41.386,0,0,1,29.612,0,1.671,1.671,0,0,0,.676.139,1.589,1.589,0,0,0,1.388-.75l.907-2.23C40.034,5.951,39.59,5.628,39.007,5.4Z" transform="translate(0 0)" fill="#dfdfdf"/>
  </g>
</svg>


