<svg xmlns="http://www.w3.org/2000/svg" width="23.286" height="23.286" viewBox="0 0 23.286 23.286">
  <path id="Icon_awesome-blender" data-name="Icon awesome-blender" d="M18.92,17.465H7.277a2.911,2.911,0,0,0-2.911,2.911v1.455a1.456,1.456,0,0,0,1.455,1.455H20.375a1.456,1.456,0,0,0,1.455-1.455V20.375A2.911,2.911,0,0,0,18.92,17.465ZM13.1,21.831a1.455,1.455,0,1,1,1.455-1.455A1.456,1.456,0,0,1,13.1,21.831Zm1.819-18.92h7.574L23.286,0H2.183A2.183,2.183,0,0,0,0,2.183V9.46a2.183,2.183,0,0,0,2.183,2.183h4.7l.4,4.366H18.92l.794-2.911h-4.8a.364.364,0,0,1-.364-.364v-.728a.364.364,0,0,1,.364-.364h5.193L20.9,8.732H14.918a.364.364,0,0,1-.364-.364V7.641a.364.364,0,0,1,.364-.364H21.3L22.1,4.366H14.918A.364.364,0,0,1,14.554,4V3.275A.364.364,0,0,1,14.918,2.911ZM2.911,8.732V2.911H6.086l.529,5.822Z" fill="#fff"/>
</svg>
